<svg width="14" height="129" viewBox="0 0 14 129" fill="none" xmlns="http://www.w3.org/2000/svg">
<path d="M9.2973 129H2.95823L4.01474 125.917V122.36L0 9.24817C0 4.11933 0 0 6.76167 0C12.448 0 13.9459 2.81849 13.9459 9.24817L7.81818 122.36V125.917L9.2973 129Z" fill="#A96601"/>
<path d="M9.27952 129H4.79247L5.52857 125.917V122.36L3.99875 12.5003C3.99875 7.37143 3.99875 3.25211 8.70984 3.25211C12.6717 3.25211 13.7154 6.07059 13.7154 12.5003L7.80091 122.36V125.856L9.27952 129Z" fill="#E89C29"/>
<path d="M0.164368 14.8513L14 8.78067L13.6832 15.1765L0.40782 21.4639L0.164368 14.8513Z" fill="#F23EC0" fill-opacity="0.8"/>
<path d="M0.619049 27.7939L13.2929 21.4639L13.0027 28.133L0.842059 34.6891L0.619049 27.7939Z" fill="#FFF626" fill-opacity="0.8"/>
<path d="M1.0415 40.8301L12.5536 35.2311L12.1868 41.1358L1.24221 47.0471L1.0415 40.8301Z" fill="#F23EC0" fill-opacity="0.8"/>
<path d="M1.46399 52.8767L11.9199 47.4807L11.5773 53.1658L1.64611 58.7546L1.46399 52.8767Z" fill="#FFF626" fill-opacity="0.8"/>
<path d="M1.88644 63.9617L11.2862 59.1882L10.9694 64.2832L2.04833 69.1613L1.88644 63.9617Z" fill="#F23EC0" fill-opacity="0.8"/>
<rect x="3.78751" y="125.314" width="4.22462" height="0.65042" rx="0.32521" fill="#603F00"/>
<rect x="3.78751" y="124.447" width="4.22462" height="0.65042" rx="0.32521" fill="#F23EC0"/>
<rect x="3.78751" y="123.58" width="4.22462" height="0.65042" rx="0.32521" fill="#603F00"/>
<rect x="3.78751" y="122.713" width="4.22462" height="0.65042" rx="0.32521" fill="#FFF626"/>
<rect x="3.78751" y="121.845" width="4.22462" height="0.65042" rx="0.32521" fill="#603F00"/>
</svg>
